# xmcd CD database file
#
# Track frame offsets:
#	150
#	16031
#	29751
#	43996
#	57587
#	72910
#	92209
#	107338
#	120228
#	137079
#	152191
#	165381
#	176333
#	191042
#	207180
#	223153
#	233894
#	247732
#	260232
#	270199
#
# Disc length: 3827 seconds
#
# Revision: 1
# Processed by: cddbd v1.5.2PL0 Copyright (c) Steve Scherf et al.
# Submitted via: CDex 1.79
#
DISCID=190ef114
DTITLE=Wayne Horsburgh - Favourites Two
DYEAR=2002
DGENRE=Country
TTITLE0=In Every Stone There's A Diamond
TTITLE1=Can You Hear Those Pioneers
TTITLE2=Someplace Green
TTITLE3=Gonna Take A Lot Of River
TTITLE4=Broken Wings
TTITLE5=Come Away With Me
TTITLE6=Through The Years
TTITLE7=Casting My Lasso To The Sky
TTITLE8=Don't Play That Song Again
TTITLE9=Forever And Ever
TTITLE10=Hoppy Gene And Me
TTITLE11=Sunny Day Girl
TTITLE12=Walkin' The Floor Over You
TTITLE13=She's A Lady
TTITLE14=Teal Eye
TTITLE15=A White Sport Coat
TTITLE16=White Christmas Makes Me Blue
TTITLE17=40 Shades Of Green
TTITLE18=Timber Trail
TTITLE19=Legend Of Xanadu
EXTD=YEAR: 2002
EXTT0=
EXTT1=
EXTT2=
EXTT3=
EXTT4=
EXTT5=
EXTT6=
EXTT7=
EXTT8=
EXTT9=
EXTT10=
EXTT11=
EXTT12=
EXTT13=
EXTT14=
EXTT15=
EXTT16=
EXTT17=
EXTT18=
EXTT19=
PLAYORDER=
